<?xml version="1.0" encoding="utf-8"?>
<!-- Generator: Adobe Illustrator 24.1.0, SVG Export Plug-In . SVG Version: 6.00 Build 0)  -->
<svg version="1.1" id="Layer_1" xmlns="http://www.w3.org/2000/svg" xmlns:xlink="http://www.w3.org/1999/xlink" x="0px" y="0px"
	 viewBox="0 0 48 48" style="enable-background:new 0 0 48 48;" xml:space="preserve">
<style type="text/css">
	.st0{fill:#0047B1;}
	.st1{fill:#F0F0F0;}
	.st2{fill:#D80027;}
	.st3{fill:#B22234;}
	.st4{fill:#FFFFFF;}
	.st5{fill:#3C3B6E;}
</style>
<g>
	<g>
		<polygon class="st0" points="252.7,-37.9 235,-37.9 235,-34.2 252.7,-22.6 		"/>
		<polygon class="st0" points="235,-25.1 235,-20.2 242.4,-20.2 		"/>
		<polygon class="st0" points="235,-7.6 235,-2.7 242.4,-7.6 		"/>
		<polygon class="st0" points="283,-34.2 283,-37.9 265.3,-37.9 265.3,-22.6 		"/>
		<polygon class="st0" points="283,-2.7 283,-7.6 275.6,-7.6 		"/>
		<polygon class="st0" points="265.3,-5.2 265.3,10.1 283,10.1 283,6.4 		"/>
		<polygon class="st0" points="283,-20.2 283,-25.1 275.6,-20.2 		"/>
		<polygon class="st0" points="235,6.4 235,10.1 252.7,10.1 252.7,-5.2 		"/>
	</g>
	<g>
		<polygon class="st1" points="283,6.4 283,2.6 267.3,-7.6 271.9,-7.6 283,-0.4 283,-2.7 275.6,-7.6 283,-7.6 283,-10.1 
			262.8,-10.1 262.8,10.1 265.3,10.1 265.3,-5.2 		"/>
		<polygon class="st1" points="235,-10.1 235,-7.6 242.4,-7.6 235,-2.7 235,0.8 248,-7.6 252.6,-7.6 235,3.8 235,6.4 252.7,-5.2 
			252.7,10.1 255.2,10.1 255.2,-10.1 		"/>
		<polygon class="st1" points="255.2,-37.9 252.7,-37.9 252.7,-22.6 235,-34.2 235,-30.1 250.2,-20.2 245.5,-20.2 235,-27 
			235,-25.1 242.4,-20.2 235,-20.2 235,-17.7 255.2,-17.7 		"/>
		<polygon class="st1" points="283,-17.7 283,-20.2 275.6,-20.2 283,-25.1 283,-28.7 270,-20.2 265.3,-20.2 283,-31.7 283,-34.2 
			265.3,-22.6 265.3,-37.9 262.8,-37.9 262.8,-17.7 		"/>
	</g>
	<g>
		<polygon class="st2" points="283,-10.1 283,-17.7 262.8,-17.7 262.8,-37.9 255.2,-37.9 255.2,-17.7 235,-17.7 235,-10.1 
			255.2,-10.1 255.2,10.1 262.8,10.1 262.8,-10.1 		"/>
		<polygon class="st2" points="248,-7.6 235,0.8 235,3.8 252.6,-7.6 		"/>
		<polygon class="st2" points="267.3,-7.6 283,2.6 283,-0.4 271.9,-7.6 		"/>
		<polygon class="st2" points="250.2,-20.2 235,-30.1 235,-27 245.5,-20.2 		"/>
		<polygon class="st2" points="270,-20.2 283,-28.7 283,-31.7 265.3,-20.2 		"/>
	</g>
</g>
<g>
	<rect x="16.3" class="st3" width="31.7" height="0.1"/>
	<rect y="38.1" class="st3" width="48" height="4.8"/>
	<rect y="19.1" class="st3" width="48" height="4.8"/>
	<rect y="28.6" class="st3" width="48" height="4.8"/>
	<rect x="16.3" y="9.6" class="st3" width="31.7" height="4.8"/>
	<rect x="16.3" y="0.1" class="st3" width="31.7" height="4.8"/>
	<rect y="26.2" class="st4" width="48" height="2.4"/>
	<rect y="33.4" class="st4" width="48" height="2.4"/>
	<polygon class="st4" points="16.3,15.8 0,15.8 0,16.7 48,16.7 48,14.4 16.3,14.4 	"/>
	<rect y="16.7" class="st4" width="48" height="2.4"/>
	<rect x="16.3" y="4.9" class="st4" width="31.7" height="2.4"/>
	<rect y="23.9" class="st4" width="48" height="2.4"/>
	<rect y="42.9" class="st4" width="48" height="2.4"/>
	<rect y="45.2" class="st4" width="48" height="2.4"/>
	<rect x="16.3" y="7.2" class="st4" width="31.7" height="2.4"/>
	<rect y="35.7" class="st4" width="48" height="2.4"/>
	<polygon class="st5" points="4.7,0 0.1,0 0.1,0.2 4.9,0.2 	"/>
	<polygon class="st5" points="14.5,0.2 14.3,0 8.9,0 8.6,0.2 	"/>
	<polygon class="st5" points="18.2,0.2 25.9,0.2 25.9,0 18.4,0 	"/>
	<polygon class="st5" points="16.9,16.2 18.6,16.2 17.2,17.2 17.7,18.8 16.4,17.8 15,18.8 15.5,17.2 14.1,16.2 15.8,16.2 16.2,15.2 
		7,15.2 7.3,16.2 9,16.2 7.6,17.2 8.1,18.8 6.8,17.8 5.4,18.8 5.9,17.2 4.6,16.2 6.3,16.2 6.6,15.2 0.1,15.2 0.1,20.3 1.5,20.3 
		2,18.7 2.5,20.3 4.2,20.3 2.8,21.3 3.3,22.7 10.2,22.7 10.7,21.3 9.4,20.3 11,20.3 11.6,18.7 12.1,20.3 13.8,20.3 12.4,21.3 
		12.9,22.7 19.8,22.7 20.3,21.3 18.9,20.3 20.6,20.3 21.1,18.7 21.7,20.3 23.3,20.3 22,21.3 22.5,22.7 25.9,22.7 25.9,15.2 
		16.6,15.2 	"/>
	<path class="st5" d="M17.2,0.9l0.5,1.6l-1.4-1l-1.4,1l0.5-1.6l-1-0.7H8.6l-1,0.7l0.5,1.6l-1.4-1l-1.4,1l0.5-1.6l-1-0.7H0.1V4h1.3
		L2,2.4L2.5,4h1.7L2.8,5l0.5,1.6L2,5.6l-1.4,1L1.1,5l-1-0.7v3.5h6.3l0.4-1.2l0.4,1.2h8.8l0.4-1.2l0.4,1.2h9.2V0.2h-7.7L17.2,0.9z
		 M12.9,6.6l-1.4-1l-1.4,1L10.7,5L9.4,4H11l0.5-1.6L12.1,4h1.7l-1.4,1L12.9,6.6z M21.1,2.4L21.7,4h1.7L22,5l0.5,1.6l-1.4-1l-1.4,1
		L20.3,5l-1.4-1h1.7L21.1,2.4z"/>
	<polygon class="st5" points="0.8,22.7 3.2,22.7 2,21.9 	"/>
	<polygon class="st5" points="0.1,20.5 0.1,22.7 0.7,22.7 1.1,21.3 	"/>
	<polygon class="st5" points="20,22.7 22.3,22.7 21.1,21.9 	"/>
	<polygon class="st5" points="10.4,22.7 12.7,22.7 11.6,21.9 	"/>
	<polygon class="st5" points="1.7,11.4 0.1,11.4 0.1,12.1 1.5,12.1 	"/>
	<polygon class="st5" points="21.7,12.1 23.3,12.1 22,13.1 22.5,14.7 21.1,13.7 19.8,14.7 20.3,13.1 18.9,12.1 20.6,12.1 20.8,11.4 
		11.9,11.4 12.1,12.1 13.8,12.1 12.4,13.1 12.9,14.7 11.6,13.7 10.2,14.7 10.7,13.1 9.4,12.1 11,12.1 11.3,11.4 2.3,11.4 2.5,12.1 
		4.2,12.1 2.8,13.1 3.4,14.7 2,13.7 0.6,14.7 1.1,13.1 0.1,12.4 0.1,15.2 6.6,15.2 6.8,14.6 7,15.2 16.2,15.2 16.4,14.6 16.6,15.2 
		25.9,15.2 25.9,11.4 21.4,11.4 	"/>
	<polygon class="st5" points="16.9,8.1 18.6,8.1 17.2,9 17.7,10.7 16.4,9.7 15,10.7 15.5,9 14.1,8.1 15.8,8.1 15.9,7.7 7.2,7.7 
		7.3,8.1 9,8.1 7.6,9 8.1,10.7 6.8,9.7 5.4,10.7 5.9,9 4.6,8.1 6.3,8.1 6.4,7.7 0.1,7.7 0.1,11.4 1.7,11.4 2,10.5 2.3,11.4 
		11.3,11.4 11.6,10.5 11.9,11.4 20.8,11.4 21.1,10.5 21.4,11.4 25.9,11.4 25.9,7.7 16.8,7.7 	"/>
	<polygon class="st5" points="25.9,22.7 22.5,22.7 22.5,22.9 22.3,22.7 20,22.7 19.8,22.9 19.8,22.7 12.9,22.7 12.9,22.9 12.7,22.7 
		10.4,22.7 10.2,22.9 10.2,22.7 3.3,22.7 3.4,22.9 3.2,22.7 0.8,22.7 0.6,22.9 0.7,22.7 0.1,22.7 0.1,25 25.9,25 	"/>
	<polygon class="st4" points="-0.2,4 0.1,4.2 0.1,4 	"/>
	<polygon class="st4" points="0.6,6.6 2,5.6 3.4,6.6 2.8,5 4.2,4 2.5,4 2,2.4 1.5,4 0.1,4 0.1,4.2 1.1,5 	"/>
	<polygon class="st4" points="-0.2,12.1 0.1,12.4 0.1,12.1 	"/>
	<polygon class="st4" points="2,10.5 1.7,11.4 2.3,11.4 	"/>
	<polygon class="st4" points="0.6,14.7 2,13.7 3.4,14.7 2.8,13.1 4.2,12.1 2.5,12.1 2.3,11.4 1.7,11.4 1.5,12.1 0.1,12.1 0.1,12.4 
		1.1,13.1 	"/>
	<polygon class="st4" points="-0.2,20.3 0.1,20.5 0.1,20.3 	"/>
	<polygon class="st4" points="4.2,20.3 2.5,20.3 2,18.7 1.5,20.3 0.1,20.3 0.1,20.5 1.1,21.3 0.7,22.7 0.8,22.7 2,21.9 3.2,22.7 
		3.3,22.7 2.8,21.3 	"/>
	<polygon class="st4" points="0.6,22.9 0.8,22.7 0.7,22.7 	"/>
	<polygon class="st4" points="3.4,22.9 3.3,22.7 3.2,22.7 	"/>
	<polygon class="st4" points="8.6,0.2 8.9,0 4.7,0 4.9,0.2 	"/>
	<polygon class="st4" points="5.9,0.9 5.4,2.5 6.8,1.5 8.1,2.5 7.6,0.9 8.6,0.2 4.9,0.2 	"/>
	<polygon class="st4" points="6.8,6.4 6.4,7.7 7.2,7.7 	"/>
	<polygon class="st4" points="4.6,8.1 5.9,9 5.4,10.7 6.8,9.7 8.1,10.7 7.6,9 9,8.1 7.3,8.1 7.2,7.7 6.4,7.7 6.3,8.1 	"/>
	<polygon class="st4" points="4.6,16.2 5.9,17.2 5.4,18.8 6.8,17.8 8.1,18.8 7.6,17.2 9,16.2 7.3,16.2 7,15.2 6.6,15.2 6.3,16.2 	
		"/>
	<polygon class="st4" points="6.8,14.6 6.6,15.2 7,15.2 	"/>
	<polygon class="st4" points="12.1,4 11.6,2.4 11,4 9.4,4 10.7,5 10.2,6.6 11.6,5.6 12.9,6.6 12.4,5 13.8,4 	"/>
	<polygon class="st4" points="11.6,10.5 11.3,11.4 11.9,11.4 	"/>
	<polygon class="st4" points="9.4,12.1 10.7,13.1 10.2,14.7 11.6,13.7 12.9,14.7 12.4,13.1 13.8,12.1 12.1,12.1 11.9,11.4 
		11.3,11.4 11,12.1 	"/>
	<polygon class="st4" points="13.8,20.3 12.1,20.3 11.6,18.7 11,20.3 9.4,20.3 10.7,21.3 10.2,22.7 10.4,22.7 11.6,21.9 12.7,22.7 
		12.9,22.7 12.4,21.3 	"/>
	<polygon class="st4" points="12.9,22.9 12.9,22.7 12.7,22.7 	"/>
	<polygon class="st4" points="10.2,22.9 10.4,22.7 10.2,22.7 	"/>
	<polygon class="st4" points="18.2,0.2 18.4,0 14.3,0 14.5,0.2 	"/>
	<polygon class="st4" points="15.5,0.9 15,2.5 16.4,1.5 17.7,2.5 17.2,0.9 18.2,0.2 14.5,0.2 	"/>
	<polygon class="st4" points="16.4,6.4 15.9,7.7 16.8,7.7 	"/>
	<polygon class="st4" points="14.1,8.1 15.5,9 15,10.7 16.4,9.7 17.7,10.7 17.2,9 18.6,8.1 16.9,8.1 16.8,7.7 15.9,7.7 15.8,8.1 	
		"/>
	<polygon class="st4" points="14.1,16.2 15.5,17.2 15,18.8 16.4,17.8 17.7,18.8 17.2,17.2 18.6,16.2 16.9,16.2 16.6,15.2 16.2,15.2 
		15.8,16.2 	"/>
	<polygon class="st4" points="16.4,14.6 16.2,15.2 16.6,15.2 	"/>
	<polygon class="st4" points="20.3,5 19.8,6.6 21.1,5.6 22.5,6.6 22,5 23.3,4 21.7,4 21.1,2.4 20.6,4 18.9,4 	"/>
	<polygon class="st4" points="18.9,12.1 20.3,13.1 19.8,14.7 21.1,13.7 22.5,14.7 22,13.1 23.3,12.1 21.7,12.1 21.4,11.4 20.8,11.4 
		20.6,12.1 	"/>
	<polygon class="st4" points="21.1,10.5 20.8,11.4 21.4,11.4 	"/>
	<polygon class="st4" points="23.3,20.3 21.7,20.3 21.1,18.7 20.6,20.3 18.9,20.3 20.3,21.3 19.8,22.7 20,22.7 21.1,21.9 22.3,22.7 
		22.5,22.7 22,21.3 	"/>
	<polygon class="st4" points="19.8,22.9 20,22.7 19.8,22.7 	"/>
	<polygon class="st4" points="22.5,22.9 22.5,22.7 22.3,22.7 	"/>
</g>
</svg>
